<svg id="svg" version="1.1" xmlns="http://www.w3.org/2000/svg" xmlns:xlink="http://www.w3.org/1999/xlink" width="400" height="400" viewBox="0, 0, 400,400"><g id="svgg"><path id="path0" d="M37.200 32.800 C 37.200 33.020,36.784 33.200,36.275 33.200 C 35.767 33.200,34.964 33.560,34.492 34.000 C 34.020 34.440,33.441 34.800,33.206 34.800 C 32.344 34.800,29.364 38.278,28.100 40.759 L 26.800 43.312 26.800 216.462 C 26.800 311.694,26.952 389.923,27.138 390.305 C 27.691 391.444,28.368 392.744,28.900 393.687 C 29.618 394.961,33.613 398.800,34.220 398.800 C 34.503 398.800,34.808 399.025,34.900 399.300 C 35.145 400.036,304.055 400.036,304.300 399.300 C 304.392 399.025,304.722 398.800,305.033 398.800 C 305.345 398.800,305.600 398.620,305.600 398.400 C 305.600 398.180,305.830 398.000,306.112 398.000 C 306.393 398.000,306.888 397.622,307.212 397.159 C 307.535 396.697,308.385 395.672,309.100 394.881 C 309.815 394.091,310.400 393.209,310.400 392.922 C 310.400 392.635,310.580 392.400,310.800 392.400 C 311.020 392.400,311.200 391.950,311.200 391.400 C 311.200 390.850,311.380 390.400,311.600 390.400 C 311.820 390.400,312.000 389.421,312.000 388.224 C 312.000 387.027,312.178 385.937,312.396 385.802 C 312.656 385.642,312.795 356.386,312.798 300.924 C 312.804 216.857,312.809 216.286,313.602 215.598 C 314.041 215.218,314.400 214.612,314.400 214.253 C 314.400 213.894,314.580 213.600,314.800 213.600 C 315.020 213.600,315.200 213.280,315.200 212.888 C 315.200 212.497,315.560 211.917,316.000 211.600 C 316.440 211.283,316.800 210.703,316.800 210.312 C 316.800 209.920,316.950 209.600,317.132 209.600 C 317.315 209.600,317.720 209.105,318.032 208.500 C 318.345 207.895,318.886 207.082,319.236 206.693 C 319.586 206.305,320.123 205.495,320.430 204.893 C 320.979 203.819,322.407 201.593,322.800 201.200 C 323.177 200.823,324.498 198.053,324.423 197.796 C 324.381 197.655,324.719 197.217,325.174 196.823 C 325.628 196.429,326.000 195.852,326.000 195.541 C 326.000 195.231,326.360 194.717,326.800 194.400 C 327.240 194.083,327.600 193.586,327.600 193.295 C 327.600 193.004,327.960 192.380,328.400 191.908 C 328.840 191.436,329.200 190.802,329.200 190.501 C 329.200 190.199,329.380 190.064,329.600 190.200 C 329.820 190.336,330.000 190.116,330.000 189.712 C 330.000 189.307,330.360 188.717,330.800 188.400 C 331.240 188.083,331.600 187.543,331.600 187.200 C 331.600 186.857,331.960 186.317,332.400 186.000 C 332.840 185.683,333.200 185.103,333.200 184.712 C 333.200 184.320,333.358 184.000,333.551 184.000 C 333.745 184.000,334.127 183.460,334.400 182.800 C 334.673 182.140,335.055 181.600,335.249 181.600 C 335.442 181.600,335.600 181.280,335.600 180.888 C 335.600 180.497,335.960 179.917,336.400 179.600 C 336.840 179.283,337.200 178.703,337.200 178.312 C 337.200 177.920,337.352 177.600,337.537 177.600 C 337.723 177.600,338.305 176.745,338.832 175.700 C 339.358 174.655,339.993 173.669,340.242 173.509 C 340.491 173.350,340.921 172.675,341.196 172.009 C 341.472 171.344,341.855 170.800,342.049 170.800 C 342.242 170.800,342.400 170.440,342.400 170.000 C 342.400 169.560,342.580 169.200,342.800 169.200 C 343.020 169.200,343.200 168.930,343.200 168.600 C 343.200 168.270,343.380 168.000,343.600 168.000 C 343.820 168.000,344.000 167.730,344.000 167.400 C 344.000 167.070,344.180 166.800,344.400 166.800 C 344.620 166.800,344.800 166.480,344.800 166.088 C 344.800 165.697,345.160 165.117,345.600 164.800 C 346.040 164.483,346.400 163.986,346.400 163.695 C 346.400 163.404,346.760 162.780,347.200 162.308 C 347.640 161.836,348.000 161.213,348.000 160.925 C 348.000 160.636,348.180 160.400,348.400 160.400 C 348.620 160.400,348.800 160.040,348.800 159.600 C 348.800 159.160,348.980 158.800,349.200 158.800 C 350.244 158.800,349.344 157.842,346.700 156.139 C 345.105 155.112,340.927 152.384,337.415 150.078 C 333.904 147.771,328.820 144.568,326.118 142.959 C 323.416 141.350,320.170 139.346,318.903 138.506 C 317.636 137.666,316.110 136.731,315.511 136.427 C 313.074 135.194,311.849 133.829,312.347 132.900 C 312.947 131.779,312.992 47.366,312.393 46.996 C 312.177 46.862,312.000 45.874,312.000 44.800 C 312.000 43.726,311.820 42.736,311.600 42.600 C 311.380 42.464,311.200 41.913,311.200 41.376 C 311.200 40.839,311.020 40.400,310.800 40.400 C 310.580 40.400,310.400 40.124,310.400 39.787 C 310.400 39.449,309.765 38.504,308.988 37.687 C 308.212 36.869,307.280 35.885,306.918 35.500 C 306.556 35.115,306.022 34.800,305.730 34.800 C 305.439 34.800,305.200 34.620,305.200 34.400 C 305.200 34.180,304.930 34.000,304.600 34.000 C 304.270 34.000,304.000 33.820,304.000 33.600 C 304.000 33.380,303.550 33.200,303.000 33.200 C 302.450 33.200,302.000 33.019,302.000 32.798 C 302.000 32.530,290.428 32.430,267.500 32.498 L 233.000 32.600 232.894 44.573 C 232.811 53.885,232.900 56.617,233.294 56.867 C 233.572 57.043,245.129 57.191,258.975 57.194 L 284.150 57.200 285.453 58.093 C 287.700 59.632,287.600 56.859,287.600 117.425 L 287.600 174.012 286.264 176.106 C 282.742 181.629,279.766 186.326,276.194 192.000 C 274.048 195.410,271.079 200.090,269.598 202.400 C 268.116 204.710,265.323 209.120,263.392 212.200 C 261.460 215.280,258.737 219.561,257.340 221.714 C 255.943 223.866,254.800 225.713,254.800 225.817 C 254.800 225.921,253.654 227.760,252.254 229.903 C 250.854 232.046,248.121 236.320,246.182 239.400 C 244.242 242.480,241.518 246.761,240.127 248.914 C 238.737 251.066,237.600 252.905,237.600 253.000 C 237.600 253.095,236.459 254.934,235.064 257.086 C 233.669 259.239,230.941 263.520,229.002 266.600 C 227.063 269.680,224.270 274.090,222.796 276.400 C 221.321 278.710,217.278 285.100,213.810 290.600 C 210.342 296.100,206.356 302.354,204.952 304.497 C 203.549 306.640,202.400 308.495,202.400 308.619 C 202.400 308.743,201.705 309.869,200.855 311.122 C 197.233 316.460,192.929 326.030,193.491 327.494 C 193.612 327.808,194.439 328.000,195.672 328.000 C 205.544 328.000,219.087 336.534,224.240 346.003 C 225.526 348.365,225.696 348.321,229.274 344.673 C 232.958 340.918,232.993 340.868,246.406 319.800 C 247.666 317.820,251.533 311.700,254.998 306.200 C 258.464 300.700,262.447 294.446,263.850 292.303 C 265.252 290.160,266.400 288.321,266.400 288.217 C 266.400 288.113,267.537 286.266,268.927 284.114 C 270.318 281.961,273.043 277.680,274.984 274.600 C 276.926 271.520,279.721 267.110,281.197 264.800 C 282.672 262.490,284.581 259.477,285.440 258.103 C 286.298 256.730,287.135 255.605,287.300 255.603 C 287.931 255.596,287.655 371.934,287.020 373.160 C 285.514 376.074,297.678 375.800,170.000 375.800 C 45.272 375.800,54.183 375.982,52.500 373.395 L 51.600 372.011 51.600 216.272 L 51.600 60.533 52.954 58.967 L 54.308 57.400 80.054 57.200 L 105.800 57.000 105.906 44.700 L 106.012 32.400 71.606 32.400 C 48.935 32.400,37.200 32.536,37.200 32.800 " stroke="none" fill="#f8ab5e" fill-rule="evenodd"></path><path id="path1" d="M89.400 87.467 C 86.834 88.069,84.746 89.770,83.346 92.400 C 82.640 93.724,82.600 95.195,82.600 119.631 L 82.600 145.463 83.811 147.421 C 84.561 148.634,85.766 149.839,86.979 150.589 L 88.937 151.800 114.769 151.800 L 140.600 151.800 142.376 150.800 C 143.353 150.250,144.793 148.906,145.576 147.813 L 147.000 145.826 147.000 119.813 C 147.000 89.639,147.236 91.142,142.000 88.000 C 141.026 87.416,91.745 86.916,89.400 87.467 M130.804 103.700 C 135.743 107.061,134.915 110.482,126.668 120.800 C 126.404 121.130,125.749 122.030,125.211 122.800 C 117.080 134.440,115.238 136.147,110.792 136.158 C 106.566 136.169,104.562 134.297,97.268 123.528 C 94.952 120.109,95.665 116.133,98.937 114.216 C 102.323 112.231,105.096 113.284,108.381 117.801 C 111.101 121.542,110.783 121.616,114.600 116.341 C 122.315 105.680,123.561 104.119,124.866 103.475 C 126.789 102.528,129.217 102.620,130.804 103.700 M89.520 184.371 C 87.307 184.814,84.983 186.546,83.722 188.691 L 82.600 190.600 82.600 216.400 C 82.600 245.018,82.490 243.788,85.261 246.226 C 88.162 248.778,85.956 248.600,114.600 248.600 C 143.459 248.600,142.045 248.726,144.620 245.926 C 147.120 243.208,147.000 244.700,147.000 216.239 L 147.000 190.200 145.793 188.413 C 145.130 187.430,143.704 186.080,142.625 185.413 L 140.664 184.200 115.832 184.137 C 102.174 184.103,90.334 184.208,89.520 184.371 M130.240 202.362 C 135.480 204.742,135.117 208.477,128.815 217.000 C 126.537 220.080,123.681 223.950,122.467 225.600 C 117.657 232.139,116.936 232.981,115.222 234.070 C 109.592 237.647,106.197 235.439,96.884 222.138 C 94.090 218.149,97.160 212.397,102.080 212.401 C 104.483 212.404,105.886 213.405,108.416 216.924 C 110.945 220.443,110.899 220.437,113.000 217.503 C 124.694 201.164,125.685 200.294,130.240 202.362 M90.200 281.191 C 87.075 281.759,84.829 283.382,83.266 286.200 C 82.304 287.934,82.242 338.796,83.200 340.413 C 86.517 346.011,86.453 346.000,114.811 346.000 C 141.357 346.000,141.951 345.933,144.938 342.619 C 147.088 340.234,147.000 341.475,147.000 313.400 L 147.000 287.400 145.925 285.572 C 144.495 283.139,142.297 281.672,139.363 281.192 C 136.644 280.746,92.648 280.746,90.200 281.191 M131.939 298.339 C 134.727 301.127,134.496 304.144,131.156 308.600 C 130.166 309.920,128.497 312.170,127.447 313.600 C 125.277 316.554,125.318 316.499,120.475 323.039 C 113.636 332.275,108.422 332.740,102.506 324.644 C 101.238 322.908,99.259 320.208,98.108 318.644 C 94.765 314.099,95.331 309.475,99.440 307.758 C 102.830 306.341,105.255 307.400,108.336 311.642 C 111.111 315.461,110.582 315.513,113.838 311.100 C 124.808 296.229,124.215 296.831,127.900 296.813 C 130.274 296.801,130.478 296.878,131.939 298.339 " stroke="none" fill="#6ab29e" fill-rule="evenodd"></path><path id="path2" d="M54.542 57.597 C 54.070 57.787,53.215 58.558,52.642 59.309 L 51.600 60.676 51.600 216.471 L 51.600 372.267 52.900 373.758 C 53.771 374.757,54.728 375.371,55.800 375.616 C 57.787 376.069,185.194 376.118,185.908 375.666 C 186.279 375.430,186.158 375.206,185.459 374.831 C 182.780 373.398,182.359 370.749,183.819 364.535 C 185.519 357.306,187.200 350.286,187.611 348.700 C 188.297 346.056,188.738 344.249,189.200 342.200 C 189.921 338.997,191.121 334.240,191.627 332.572 C 191.832 331.896,192.000 330.897,192.000 330.352 C 192.000 329.806,192.149 329.189,192.330 328.980 C 192.512 328.771,192.894 327.790,193.178 326.800 C 195.096 320.122,196.307 317.785,204.790 304.400 C 207.927 299.450,211.476 293.897,212.677 292.059 C 213.877 290.222,215.180 288.152,215.573 287.459 C 216.495 285.832,226.930 269.364,230.246 264.303 C 231.651 262.160,232.800 260.307,232.800 260.185 C 232.800 260.063,233.667 258.667,234.728 257.082 C 235.788 255.497,237.717 252.400,239.014 250.200 C 240.312 248.000,241.515 246.140,241.687 246.067 C 241.859 245.993,242.000 245.767,242.000 245.563 C 242.000 245.359,242.965 243.709,244.145 241.896 C 245.325 240.083,247.878 236.080,249.818 233.000 C 251.758 229.920,254.482 225.639,255.873 223.486 C 257.263 221.334,258.400 219.487,258.400 219.383 C 258.400 219.279,259.546 217.440,260.946 215.297 C 262.346 213.154,265.081 208.880,267.023 205.800 C 274.197 194.425,276.393 190.989,276.792 190.517 C 277.016 190.251,277.200 189.934,277.200 189.813 C 277.200 189.692,278.164 188.109,279.343 186.296 C 280.521 184.483,282.771 180.968,284.343 178.484 L 287.200 173.967 287.200 117.357 C 287.200 60.036,287.196 59.849,285.821 58.608 C 284.229 57.171,286.610 57.199,169.505 57.225 C 106.253 57.239,55.018 57.405,54.542 57.597 M139.800 86.828 C 144.275 88.012,146.619 90.401,147.546 94.724 C 148.174 97.652,148.177 141.526,147.550 144.480 C 146.829 147.873,144.879 150.280,141.771 151.613 C 140.008 152.368,138.912 152.400,114.800 152.400 C 86.724 152.400,87.760 152.498,84.818 149.557 C 81.897 146.636,82.018 147.927,82.013 119.600 L 82.008 94.200 82.982 92.107 C 84.089 89.730,86.591 87.691,89.325 86.939 C 91.577 86.320,137.497 86.218,139.800 86.828 M124.996 103.937 C 123.711 104.721,123.364 105.131,119.520 110.400 C 110.150 123.244,111.220 122.484,108.253 118.405 C 104.409 113.119,99.290 112.371,97.019 116.762 C 95.587 119.532,96.081 121.275,99.679 126.160 C 100.992 127.942,102.456 129.930,102.933 130.578 C 108.193 137.724,113.807 137.649,119.053 130.362 C 120.344 128.569,121.589 126.899,121.819 126.651 C 122.049 126.403,122.851 125.304,123.601 124.209 C 124.350 123.114,125.189 121.944,125.464 121.609 C 128.340 118.112,132.840 111.461,133.205 110.167 C 134.494 105.603,129.046 101.468,124.996 103.937 M142.356 184.653 C 147.858 187.395,148.000 188.192,148.000 216.400 C 148.000 244.015,147.910 244.615,143.294 247.715 C 140.701 249.457,138.604 249.595,114.773 249.598 C 86.263 249.601,85.490 249.455,82.831 243.593 C 81.754 241.219,81.526 192.310,82.580 189.787 C 83.557 187.448,85.170 185.687,87.311 184.620 L 89.357 183.600 114.800 183.600 L 140.243 183.600 142.356 184.653 M124.769 203.061 C 124.203 203.413,123.033 204.685,122.169 205.888 C 121.306 207.091,120.330 208.408,120.000 208.816 C 119.670 209.223,117.611 211.996,115.424 214.978 C 110.989 221.026,110.697 221.187,109.004 218.499 C 105.220 212.493,101.358 211.221,97.909 214.847 C 96.585 216.239,96.400 216.674,96.400 218.392 C 96.400 220.465,96.167 220.065,103.220 230.108 C 108.194 237.192,113.718 236.571,119.862 228.238 C 121.499 226.017,123.057 223.930,123.325 223.600 C 123.592 223.270,124.250 222.370,124.786 221.600 C 125.323 220.830,125.872 220.110,126.007 220.000 C 126.142 219.890,126.859 218.900,127.600 217.800 C 128.341 216.700,129.054 215.710,129.185 215.600 C 129.837 215.052,132.571 210.888,133.083 209.663 C 134.973 205.139,129.027 200.417,124.769 203.061 M286.500 256.998 C 286.225 257.311,286.000 257.653,286.000 257.758 C 286.000 257.984,280.609 266.532,276.957 272.097 C 275.551 274.240,274.400 276.175,274.400 276.397 C 274.400 276.619,274.220 276.800,274.000 276.800 C 273.780 276.800,273.600 276.982,273.600 277.205 C 273.600 277.427,272.816 278.822,271.857 280.305 C 270.899 281.787,268.354 285.790,266.201 289.200 C 264.049 292.610,261.143 297.154,259.744 299.297 C 258.345 301.440,257.200 303.375,257.200 303.597 C 257.200 303.819,257.020 304.000,256.800 304.000 C 256.580 304.000,256.400 304.182,256.400 304.404 C 256.400 304.626,255.435 306.291,254.255 308.104 C 253.075 309.917,250.529 313.920,248.597 317.000 C 246.665 320.080,243.761 324.624,242.142 327.097 C 240.524 329.571,239.200 331.742,239.200 331.922 C 239.200 332.102,238.876 332.598,238.479 333.025 C 238.083 333.451,236.688 335.413,235.379 337.385 C 232.268 342.073,227.002 347.551,220.800 352.554 C 215.387 356.920,214.775 357.419,213.466 358.545 C 212.990 358.955,211.970 359.764,211.200 360.343 C 210.430 360.922,209.710 361.500,209.600 361.629 C 209.377 361.888,200.097 369.349,198.450 370.593 C 197.873 371.029,196.950 371.804,196.400 372.316 C 195.850 372.827,194.905 373.544,194.300 373.909 C 193.695 374.274,193.200 374.714,193.200 374.886 C 193.200 375.059,192.885 375.211,192.500 375.225 C 192.008 375.243,192.097 375.371,192.800 375.656 C 193.470 375.928,208.756 375.967,239.145 375.773 L 284.490 375.484 285.845 374.128 L 287.200 372.773 287.200 314.587 C 287.200 282.584,287.155 256.407,287.100 256.415 C 287.045 256.424,286.775 256.686,286.500 256.998 M140.818 280.906 C 147.854 283.359,147.800 283.107,147.800 313.200 C 147.800 341.756,147.933 340.548,144.439 343.689 C 141.385 346.434,141.755 346.400,114.609 346.400 C 78.800 346.400,82.021 349.668,82.009 313.333 C 82.000 289.408,82.040 287.972,82.758 286.297 C 83.620 284.286,86.326 281.745,88.400 280.999 C 90.411 280.276,138.764 280.190,140.818 280.906 M124.797 297.844 C 123.938 298.378,120.734 302.518,113.147 312.900 C 111.256 315.487,110.483 315.726,109.483 314.032 C 105.496 307.283,100.687 305.753,97.291 310.154 C 95.287 312.749,95.839 314.541,100.755 321.400 C 108.880 332.736,113.051 332.823,120.800 321.820 C 122.010 320.102,123.186 318.495,123.413 318.248 C 123.640 318.002,124.268 317.170,124.807 316.400 C 125.347 315.630,126.008 314.730,126.277 314.400 C 128.887 311.192,132.876 305.204,133.197 304.011 C 134.430 299.430,128.845 295.329,124.797 297.844 " stroke="none" fill="#f0f1f2" fill-rule="evenodd"></path><path id="path3" d="M143.466 0.596 C 142.066 1.327,138.800 4.733,138.800 5.464 C 138.800 5.759,138.620 6.000,138.400 6.000 C 138.180 6.000,138.000 6.709,138.000 7.576 C 138.000 8.443,137.820 9.264,137.600 9.400 C 137.368 9.543,137.200 11.743,137.200 14.640 C 137.200 22.443,137.278 22.400,122.931 22.400 C 115.981 22.400,112.438 22.537,112.600 22.800 C 112.736 23.020,112.564 23.200,112.218 23.200 C 111.427 23.200,109.903 24.038,109.475 24.708 C 109.297 24.988,108.982 25.112,108.775 24.985 C 108.569 24.857,108.400 25.011,108.400 25.327 C 108.400 25.643,108.134 26.123,107.808 26.393 C 106.931 27.121,106.000 29.175,106.000 30.381 C 106.000 30.964,105.784 31.656,105.520 31.920 C 105.147 32.293,105.149 32.400,105.531 32.400 C 105.911 32.400,105.997 35.205,105.911 44.800 L 105.800 57.200 169.800 57.169 C 205.000 57.151,233.575 57.046,233.300 56.935 C 232.544 56.630,232.577 32.861,233.333 32.570 C 233.627 32.458,233.867 32.111,233.867 31.800 C 233.867 31.490,233.717 31.328,233.533 31.441 C 233.350 31.555,233.200 31.117,233.200 30.469 C 233.200 28.763,230.832 24.800,229.813 24.800 C 229.573 24.800,229.117 24.440,228.800 24.000 C 228.483 23.560,227.914 23.200,227.535 23.200 C 227.157 23.200,226.736 23.020,226.600 22.800 C 226.445 22.549,222.329 22.400,215.576 22.400 C 208.659 22.400,204.800 22.257,204.800 22.000 C 204.800 21.780,204.485 21.594,204.100 21.587 C 202.432 21.557,201.915 19.861,201.975 14.604 C 202.009 11.563,201.871 9.567,201.615 9.409 C 201.387 9.268,201.200 8.443,201.200 7.576 C 201.200 6.709,201.020 6.000,200.800 6.000 C 200.580 6.000,200.400 5.742,200.400 5.427 C 200.400 4.628,196.677 0.886,195.400 0.400 C 193.537 -0.308,144.848 -0.124,143.466 0.596 M286.672 59.400 C 286.853 59.840,287.046 85.799,287.103 117.086 L 287.205 173.972 284.654 177.916 C 281.929 182.129,281.071 183.600,281.339 183.600 C 281.431 183.600,282.275 182.385,283.214 180.900 C 284.154 179.415,285.525 177.258,286.261 176.106 L 287.600 174.012 287.586 117.306 C 287.573 67.066,287.502 60.486,286.958 59.600 C 286.621 59.050,286.492 58.960,286.672 59.400 M89.325 86.939 C 86.591 87.691,84.089 89.730,82.982 92.107 L 82.008 94.200 82.013 119.600 C 82.020 155.825,78.596 152.400,114.800 152.400 C 151.074 152.400,148.000 155.437,148.000 119.600 C 148.000 96.493,147.856 93.845,146.473 91.604 C 144.824 88.930,143.112 87.704,139.800 86.828 C 137.497 86.218,91.577 86.320,89.325 86.939 M142.000 88.000 C 147.236 91.142,147.000 89.639,147.000 119.813 L 147.000 145.826 145.576 147.813 C 144.793 148.906,143.353 150.250,142.376 150.800 L 140.600 151.800 114.769 151.800 L 88.937 151.800 86.979 150.589 C 85.766 149.839,84.561 148.634,83.811 147.421 L 82.600 145.463 82.600 119.631 C 82.600 95.195,82.640 93.724,83.346 92.400 C 84.746 89.770,86.834 88.069,89.400 87.467 C 91.745 86.916,141.026 87.416,142.000 88.000 M124.866 103.475 C 123.561 104.119,122.315 105.680,114.600 116.341 C 110.783 121.616,111.101 121.542,108.381 117.801 C 105.096 113.284,102.323 112.231,98.937 114.216 C 95.665 116.133,94.952 120.109,97.268 123.528 C 104.562 134.297,106.566 136.169,110.792 136.158 C 115.238 136.147,117.080 134.440,125.211 122.800 C 125.749 122.030,126.404 121.130,126.668 120.800 C 131.906 114.247,133.710 111.233,133.743 108.983 C 133.810 104.343,129.071 101.403,124.866 103.475 M130.101 103.700 C 135.304 106.622,134.162 111.033,125.464 121.609 C 125.189 121.944,124.350 123.114,123.601 124.209 C 122.851 125.304,122.049 126.403,121.819 126.651 C 121.589 126.899,120.344 128.569,119.053 130.362 C 113.807 137.649,108.193 137.724,102.933 130.578 C 102.456 129.930,100.992 127.942,99.679 126.160 C 96.081 121.275,95.587 119.532,97.019 116.762 C 99.290 112.371,104.409 113.119,108.253 118.405 C 111.220 122.484,110.150 123.244,119.520 110.400 C 123.364 105.131,123.711 104.721,124.996 103.937 C 126.387 103.089,128.813 102.976,130.101 103.700 M323.700 114.998 C 323.425 115.311,323.200 115.844,323.200 116.183 C 323.200 116.522,323.050 116.800,322.868 116.800 C 322.685 116.800,322.280 117.295,321.968 117.900 C 321.655 118.505,321.085 119.349,320.700 119.775 C 320.315 120.202,320.000 120.787,320.000 121.075 C 320.000 121.364,319.820 121.600,319.600 121.600 C 319.380 121.600,319.200 121.960,319.200 122.400 C 319.200 122.840,319.042 123.200,318.849 123.200 C 318.655 123.200,318.273 123.740,318.000 124.400 C 317.727 125.060,317.367 125.600,317.200 125.600 C 317.033 125.600,316.673 126.140,316.400 126.800 C 316.127 127.460,315.789 128.000,315.649 128.000 C 315.510 128.000,315.171 128.506,314.897 129.125 C 314.624 129.744,314.085 130.608,313.700 131.045 C 311.536 133.505,311.906 134.604,315.511 136.427 C 316.110 136.731,317.636 137.666,318.903 138.506 C 320.170 139.346,323.416 141.350,326.118 142.959 C 328.820 144.568,333.904 147.774,337.415 150.084 C 350.565 158.733,349.904 158.411,350.800 156.607 C 351.593 155.011,352.881 153.072,353.391 152.706 C 353.656 152.516,353.659 152.406,353.400 152.393 C 353.180 152.383,353.281 152.155,353.625 151.887 C 354.237 151.410,354.975 149.925,354.726 149.672 C 354.657 149.601,354.915 149.367,355.300 149.152 C 355.685 148.937,356.000 148.564,356.000 148.324 C 356.000 148.084,356.315 147.649,356.700 147.357 C 357.157 147.010,357.220 146.821,356.882 146.813 C 356.583 146.805,356.798 146.365,357.389 145.774 C 357.954 145.210,358.311 144.580,358.184 144.374 C 358.057 144.168,358.113 144.000,358.309 144.000 C 358.505 144.000,358.919 143.505,359.230 142.900 C 359.540 142.295,360.066 141.530,360.397 141.200 C 361.218 140.383,362.627 137.813,362.063 138.161 C 361.814 138.315,361.383 138.243,361.105 138.001 C 360.413 137.399,349.595 130.400,349.356 130.400 C 349.250 130.400,347.867 129.531,346.282 128.470 C 344.697 127.408,343.130 126.418,342.800 126.269 C 342.017 125.916,325.547 115.375,324.917 114.823 C 324.321 114.301,324.313 114.302,323.700 114.998 M87.311 184.620 C 85.170 185.687,83.557 187.448,82.580 189.787 C 81.526 192.310,81.754 241.219,82.831 243.593 C 85.490 249.455,86.263 249.601,114.773 249.598 C 138.604 249.595,140.701 249.457,143.294 247.715 C 147.910 244.615,148.000 244.015,148.000 216.400 C 148.000 188.192,147.858 187.395,142.356 184.653 L 140.243 183.600 114.800 183.600 L 89.357 183.600 87.311 184.620 M142.625 185.413 C 143.704 186.080,145.130 187.430,145.793 188.413 L 147.000 190.200 147.000 216.239 C 147.000 252.398,150.802 248.600,114.600 248.600 C 85.956 248.600,88.162 248.778,85.261 246.226 C 82.490 243.788,82.600 245.018,82.600 216.400 L 82.600 190.600 83.722 188.691 C 86.479 184.001,86.046 184.063,115.832 184.137 L 140.664 184.200 142.625 185.413 M278.628 187.438 C 277.810 188.668,277.224 189.758,277.325 189.859 C 277.426 189.960,277.923 189.358,278.430 188.521 C 278.937 187.684,279.608 186.595,279.922 186.100 C 281.140 184.177,280.032 185.323,278.628 187.438 M275.369 192.515 C 274.692 193.662,272.705 196.850,270.953 199.600 C 266.939 205.902,267.122 205.600,267.320 205.600 C 267.524 205.600,269.910 202.035,272.406 198.000 C 273.426 196.350,274.928 193.965,275.743 192.700 C 276.558 191.435,277.084 190.407,276.912 190.415 C 276.741 190.423,276.046 191.368,275.369 192.515 M125.800 202.082 C 123.776 202.790,121.992 204.938,113.000 217.503 C 110.899 220.437,110.945 220.443,108.416 216.924 C 105.886 213.405,104.483 212.404,102.080 212.401 C 97.160 212.397,94.090 218.149,96.884 222.138 C 106.197 235.439,109.592 237.647,115.222 234.070 C 116.936 232.981,117.657 232.139,122.467 225.600 C 123.681 223.950,126.537 220.080,128.815 217.000 C 131.092 213.920,133.196 210.708,133.489 209.862 C 135.143 205.092,130.534 200.428,125.800 202.082 M131.252 203.582 C 133.166 205.160,133.919 207.661,133.083 209.663 C 132.571 210.888,129.837 215.052,129.185 215.600 C 129.054 215.710,128.341 216.700,127.600 217.800 C 126.859 218.900,126.142 219.890,126.007 220.000 C 125.872 220.110,125.323 220.830,124.786 221.600 C 124.250 222.370,123.592 223.270,123.325 223.600 C 123.057 223.930,121.499 226.017,119.862 228.238 C 113.718 236.571,108.194 237.192,103.220 230.108 C 96.167 220.065,96.400 220.465,96.400 218.392 C 96.400 216.674,96.585 216.239,97.909 214.847 C 101.358 211.221,105.220 212.493,109.004 218.499 C 110.697 221.187,110.989 221.026,115.424 214.978 C 117.611 211.996,119.670 209.223,120.000 208.816 C 120.330 208.408,121.306 207.091,122.169 205.888 C 124.915 202.063,128.350 201.190,131.252 203.582 M265.522 208.100 C 263.963 210.452,263.093 212.000,263.329 212.000 C 263.512 212.000,266.044 208.224,266.749 206.900 C 267.595 205.311,266.955 205.937,265.522 208.100 M260.660 215.796 C 259.417 217.664,258.400 219.294,258.400 219.418 C 258.400 219.542,257.707 220.669,256.860 221.922 C 256.013 223.175,254.428 225.640,253.338 227.400 C 252.248 229.160,251.031 231.095,250.632 231.700 C 250.234 232.305,249.992 232.800,250.095 232.800 C 250.302 232.800,253.634 227.864,254.776 225.865 C 255.174 225.169,257.108 222.080,259.075 219.000 C 263.321 212.351,263.292 212.400,263.084 212.400 C 262.994 212.400,261.903 213.928,260.660 215.796 M248.322 235.300 C 246.763 237.652,245.893 239.200,246.129 239.200 C 246.312 239.200,248.844 235.424,249.549 234.100 C 250.395 232.511,249.755 233.137,248.322 235.300 M243.830 242.438 C 242.792 243.999,242.018 245.351,242.109 245.442 C 242.200 245.534,242.809 244.752,243.461 243.704 C 244.113 242.657,244.972 241.305,245.369 240.700 C 245.767 240.095,246.008 239.600,245.905 239.600 C 245.802 239.600,244.868 240.877,243.830 242.438 M240.695 247.300 C 240.336 248.015,239.655 249.185,239.182 249.900 C 238.709 250.615,238.405 251.200,238.508 251.200 C 238.676 251.200,239.249 250.382,241.378 247.100 C 241.771 246.495,241.925 246.000,241.720 246.000 C 241.516 246.000,241.054 246.585,240.695 247.300 M287.101 297.700 C 287.156 320.855,287.248 347.180,287.305 356.200 C 287.362 365.220,287.452 346.275,287.505 314.100 C 287.557 281.925,287.465 255.600,287.300 255.600 C 287.135 255.600,287.045 274.545,287.101 297.700 M285.116 258.488 C 284.251 259.822,283.548 261.200,283.733 261.200 C 284.025 261.200,286.064 257.930,285.884 257.751 C 285.787 257.654,285.442 257.986,285.116 258.488 M280.788 265.500 C 279.404 267.645,277.701 270.300,277.004 271.400 C 276.307 272.500,275.416 273.895,275.023 274.500 C 274.630 275.105,274.395 275.600,274.501 275.600 C 274.734 275.600,275.990 273.724,279.993 267.400 C 283.881 261.257,283.675 261.600,283.476 261.600 C 283.383 261.600,282.173 263.355,280.788 265.500 M272.730 278.088 C 271.212 280.482,270.351 282.000,270.511 282.000 C 270.813 282.000,273.668 277.534,273.483 277.350 C 273.387 277.254,273.048 277.586,272.730 278.088 M88.400 280.999 C 86.326 281.745,83.620 284.286,82.758 286.297 C 82.040 287.972,82.000 289.408,82.009 313.333 C 82.021 349.668,78.800 346.400,114.609 346.400 C 141.755 346.400,141.385 346.434,144.439 343.689 C 147.933 340.548,147.800 341.756,147.800 313.200 C 147.800 283.107,147.854 283.359,140.818 280.906 C 138.764 280.190,90.411 280.276,88.400 280.999 M139.363 281.192 C 142.297 281.672,144.495 283.139,145.925 285.572 L 147.000 287.400 147.000 313.400 C 147.000 341.475,147.088 340.234,144.938 342.619 C 141.951 345.933,141.357 346.000,114.811 346.000 C 86.453 346.000,86.517 346.011,83.200 340.413 C 82.242 338.796,82.304 287.934,83.266 286.200 C 84.829 283.382,87.075 281.759,90.200 281.191 C 92.648 280.746,136.644 280.746,139.363 281.192 M268.230 285.238 C 267.192 286.799,266.418 288.152,266.511 288.244 C 266.677 288.411,269.027 285.031,269.949 283.300 C 270.882 281.547,270.092 282.438,268.230 285.238 M263.588 292.700 C 262.204 294.845,260.501 297.500,259.804 298.600 C 259.107 299.700,258.216 301.095,257.823 301.700 C 257.430 302.305,257.195 302.800,257.301 302.800 C 257.473 302.800,260.075 298.873,263.796 293.000 C 264.493 291.900,265.384 290.505,265.777 289.900 C 266.170 289.295,266.405 288.800,266.299 288.800 C 266.193 288.800,264.973 290.555,263.588 292.700 M124.315 297.635 C 123.319 298.378,121.459 300.769,113.838 311.100 C 110.582 315.513,111.111 315.461,108.336 311.642 C 105.255 307.400,102.830 306.341,99.440 307.758 C 95.331 309.475,94.765 314.099,98.108 318.644 C 99.259 320.208,101.238 322.908,102.506 324.644 C 108.422 332.740,113.636 332.275,120.475 323.039 C 125.318 316.499,125.277 316.554,127.447 313.600 C 128.497 312.170,130.166 309.920,131.156 308.600 C 134.496 304.144,134.727 301.127,131.939 298.339 C 130.057 296.457,126.352 296.115,124.315 297.635 M130.321 297.759 C 135.216 300.290,134.133 304.745,126.277 314.400 C 126.008 314.730,125.347 315.630,124.807 316.400 C 124.268 317.170,123.640 318.002,123.413 318.248 C 123.186 318.495,122.010 320.102,120.800 321.820 C 116.382 328.094,114.451 329.600,110.828 329.600 C 107.151 329.600,105.907 328.588,100.755 321.400 C 95.839 314.541,95.287 312.749,97.291 310.154 C 100.687 305.753,105.496 307.283,109.483 314.032 C 110.483 315.726,111.256 315.487,113.147 312.900 C 125.371 296.174,126.068 295.560,130.321 297.759 M254.939 306.296 C 254.287 307.343,253.428 308.695,253.031 309.300 C 252.633 309.905,252.392 310.400,252.495 310.400 C 252.797 310.400,256.474 304.740,256.291 304.558 C 256.200 304.466,255.591 305.248,254.939 306.296 M250.722 312.900 C 249.163 315.252,248.293 316.800,248.529 316.800 C 248.712 316.800,251.244 313.024,251.949 311.700 C 252.795 310.111,252.155 310.737,250.722 312.900 M245.987 320.500 C 244.825 322.315,243.303 324.700,242.605 325.800 C 241.908 326.900,241.016 328.295,240.623 328.900 C 240.230 329.505,239.993 330.000,240.097 330.000 C 240.325 330.000,242.659 326.522,245.198 322.400 C 246.214 320.750,247.371 318.905,247.769 318.300 C 248.167 317.695,248.404 317.200,248.296 317.200 C 248.189 317.200,247.150 318.685,245.987 320.500 M192.800 327.976 C 192.800 328.403,192.620 328.864,192.400 329.000 C 192.180 329.136,192.000 329.719,192.000 330.295 C 192.000 330.872,191.832 331.896,191.627 332.572 C 191.422 333.247,191.077 334.520,190.860 335.400 C 190.643 336.280,190.283 337.720,190.058 338.600 C 189.834 339.480,189.448 341.100,189.200 342.200 C 188.952 343.300,188.566 344.920,188.342 345.800 C 188.117 346.680,187.774 348.030,187.578 348.800 C 187.174 350.386,185.338 358.076,183.819 364.535 C 182.359 370.749,182.780 373.398,185.459 374.831 C 186.158 375.206,186.279 375.430,185.908 375.666 C 185.296 376.054,185.923 376.053,186.904 375.665 C 187.498 375.430,187.404 375.274,186.304 374.672 C 183.561 373.169,182.842 370.574,183.950 366.183 C 184.225 365.092,184.611 363.570,184.806 362.800 C 185.002 362.030,185.539 359.780,186.000 357.800 C 186.841 354.185,187.186 352.764,187.942 349.800 C 188.166 348.920,188.552 347.300,188.800 346.200 C 189.238 344.256,189.593 342.796,190.382 339.700 C 190.592 338.875,191.299 336.040,191.952 333.400 C 192.604 330.760,193.262 328.285,193.412 327.900 C 193.572 327.490,193.502 327.200,193.243 327.200 C 192.999 327.200,192.800 327.549,192.800 327.976 M238.245 332.588 C 237.880 333.144,237.722 333.600,237.895 333.600 C 238.284 333.600,239.319 331.986,239.082 331.749 C 238.986 331.653,238.610 332.031,238.245 332.588 M230.575 343.300 L 229.400 344.600 230.700 343.425 C 231.415 342.779,232.000 342.194,232.000 342.125 C 232.000 341.816,231.670 342.088,230.575 343.300 M225.600 347.937 C 221.483 351.541,192.418 374.800,192.032 374.800 C 191.820 374.800,191.524 374.999,191.374 375.243 C 191.087 375.706,192.804 375.333,193.200 374.846 C 193.310 374.711,194.210 373.972,195.200 373.206 C 197.746 371.233,198.339 370.758,199.963 369.386 C 200.753 368.718,203.200 366.749,205.400 365.010 C 207.600 363.271,209.490 361.746,209.600 361.622 C 209.710 361.497,210.430 360.922,211.200 360.343 C 211.970 359.764,212.990 358.955,213.466 358.545 C 214.741 357.449,215.316 356.978,220.800 352.541 C 225.216 348.968,228.486 345.989,227.975 346.006 C 227.879 346.009,226.810 346.878,225.600 347.937 M246.529 375.900 C 253.310 375.961,264.290 375.961,270.929 375.900 C 277.568 375.838,272.020 375.788,258.600 375.788 C 245.180 375.788,239.748 375.838,246.529 375.900 " stroke="none" fill="#c3d4db" fill-rule="evenodd"></path><path id="path4" d="M342.182 93.629 C 342.056 93.833,341.603 94.000,341.176 94.000 C 340.749 94.000,340.399 94.135,340.397 94.300 C 340.394 94.611,338.497 95.600,337.903 95.600 C 337.552 95.600,337.328 95.767,335.479 97.406 C 334.863 97.953,334.486 98.400,334.641 98.400 C 334.796 98.400,334.535 98.736,334.061 99.147 C 333.588 99.558,333.200 100.108,333.200 100.371 C 333.200 100.633,333.020 100.736,332.800 100.600 C 332.580 100.464,332.400 100.723,332.400 101.176 C 332.400 101.629,332.250 102.000,332.068 102.000 C 331.885 102.000,331.480 102.495,331.168 103.100 C 330.855 103.705,330.285 104.549,329.900 104.975 C 329.515 105.402,329.200 105.987,329.200 106.275 C 329.200 106.564,329.043 106.800,328.850 106.800 C 328.658 106.800,328.392 107.340,328.260 108.000 C 328.116 108.721,327.770 109.200,327.392 109.200 C 327.047 109.200,326.802 109.425,326.847 109.700 C 326.971 110.464,326.116 112.295,325.460 112.668 C 325.139 112.850,324.814 113.356,324.738 113.792 C 324.588 114.653,324.262 114.414,333.800 120.441 C 336.880 122.387,339.617 124.164,339.883 124.390 C 340.149 124.615,340.472 124.800,340.601 124.800 C 340.730 124.800,342.170 125.700,343.800 126.800 C 345.430 127.900,346.870 128.800,346.999 128.800 C 347.128 128.800,347.451 128.990,347.717 129.222 C 347.983 129.454,350.000 130.764,352.200 132.132 C 354.400 133.501,357.370 135.377,358.800 136.302 C 360.230 137.227,361.636 137.987,361.924 137.992 C 362.217 137.996,362.322 138.203,362.162 138.462 C 361.985 138.748,362.052 138.815,362.338 138.638 C 362.592 138.481,362.800 138.093,362.800 137.776 C 362.800 137.459,362.980 137.200,363.200 137.200 C 363.420 137.200,363.600 136.880,363.600 136.488 C 363.600 136.097,363.960 135.517,364.400 135.200 C 364.840 134.883,365.200 134.386,365.200 134.095 C 365.200 133.804,365.384 133.349,365.608 133.083 C 366.199 132.384,369.200 127.610,369.200 127.370 C 369.200 127.258,369.560 126.780,370.000 126.308 C 370.440 125.836,370.800 125.213,370.800 124.925 C 370.800 124.636,370.959 124.400,371.153 124.400 C 371.348 124.400,371.611 124.085,371.739 123.700 C 371.867 123.315,372.215 122.357,372.514 121.572 C 373.141 119.921,373.319 111.649,372.743 110.941 C 372.538 110.688,372.288 110.059,372.189 109.542 C 372.089 109.025,371.825 108.542,371.601 108.467 C 371.378 108.393,371.314 108.140,371.459 107.905 C 371.604 107.671,371.390 107.236,370.985 106.939 C 370.579 106.643,370.384 106.400,370.551 106.400 C 370.718 106.400,369.816 105.410,368.547 104.200 C 367.277 102.990,366.077 102.000,365.880 102.000 C 365.682 102.000,365.042 101.505,364.457 100.900 C 363.871 100.295,363.124 99.741,362.796 99.670 C 362.468 99.598,362.140 99.373,362.067 99.170 C 361.993 98.966,361.588 98.800,361.167 98.800 C 360.745 98.800,360.400 98.620,360.400 98.400 C 360.400 98.180,360.119 98.000,359.776 98.000 C 359.433 98.000,359.264 97.820,359.400 97.600 C 359.536 97.380,359.364 97.200,359.018 97.200 C 358.232 97.200,356.704 96.363,356.280 95.700 C 356.104 95.425,355.758 95.200,355.512 95.200 C 355.265 95.200,354.765 94.931,354.401 94.601 C 354.038 94.272,353.258 93.963,352.670 93.914 C 352.081 93.865,351.600 93.698,351.600 93.541 C 351.600 93.114,342.448 93.199,342.182 93.629 M193.200 328.162 C 193.200 328.313,191.263 336.244,190.382 339.700 C 189.593 342.796,189.238 344.256,188.800 346.200 C 188.552 347.300,188.166 348.920,187.942 349.800 C 187.186 352.764,186.841 354.185,186.000 357.800 C 185.539 359.780,185.002 362.030,184.806 362.800 C 184.611 363.570,184.225 365.092,183.950 366.183 C 182.314 372.667,186.678 377.691,191.690 375.091 C 193.074 374.373,224.840 348.760,225.062 348.184 C 225.410 347.275,221.452 341.419,218.584 338.601 C 214.655 334.741,206.863 330.215,202.400 329.200 C 201.190 328.925,199.678 328.543,199.040 328.350 C 197.888 328.002,193.200 327.852,193.200 328.162 " stroke="none" fill="#7c8c94" fill-rule="evenodd"></path></g></svg>